<?xml version="1.0" encoding="UTF-8"?>
<svg version="1.1" xmlns="http://www.w3.org/2000/svg" width="445" height="561">
<path d="M0 0 C1.50533369 -0.00417614 3.01066422 -0.0096552 4.51598895 -0.01631981 C8.64024551 -0.03075649 12.76430192 -0.02653528 16.88856936 -0.019153 C21.34130504 -0.01441921 25.79399755 -0.02693307 30.24671936 -0.03717041 C38.96532119 -0.05435978 47.68385095 -0.05519811 56.40246533 -0.04995751 C63.48982059 -0.04591472 70.57715457 -0.04736066 77.66450882 -0.05270576 C78.67354452 -0.05345419 79.68258023 -0.05420261 80.72219277 -0.05497371 C82.77210819 -0.0565052 84.82202361 -0.05804355 86.87193902 -0.05958868 C106.09250999 -0.07331429 125.31304025 -0.06787566 144.5336103 -0.05640347 C162.11210525 -0.04647169 179.69049492 -0.0594107 197.26897363 -0.08333766 C215.32462428 -0.10772869 233.38022591 -0.11733647 251.4358927 -0.11068493 C261.57034404 -0.10719264 271.70471442 -0.10942545 281.83915329 -0.12693596 C290.46665215 -0.14165799 299.09401305 -0.14229337 307.7215092 -0.12486505 C312.12176906 -0.11635258 316.52178248 -0.11421149 320.9220295 -0.1295166 C324.9538496 -0.14336641 328.98521221 -0.13859698 333.01700588 -0.11927737 C334.47184623 -0.11551792 335.92672325 -0.11843778 337.38153093 -0.12888902 C350.37226214 -0.2155426 359.68036458 2.42427517 369.2484436 11.38768005 C379.01756349 21.4270918 380.85451933 32.93708585 380.72946167 46.51066589 C380.73120992 47.89870907 380.73471947 49.28675094 380.73981833 50.67478585 C380.74869255 54.45597203 380.7328601 58.2366984 380.71270609 62.01782608 C380.69533538 66.10763185 380.70128455 70.19741439 380.70431519 74.2872467 C380.7064065 81.36218597 380.69392044 88.43697699 380.67136383 95.51187897 C380.6387727 105.74081133 380.62842956 115.96967245 380.62341186 126.19865111 C380.61467034 142.79685757 380.58808586 159.39498514 380.55020142 175.9931488 C380.51345169 192.11098335 380.48515444 208.22879641 380.46817017 224.34666443 C380.46711927 225.34116827 380.46606838 226.33567211 380.46498564 227.36031243 C380.45976526 232.34974448 380.45471048 237.33917669 380.44973803 242.32860899 C380.4083116 283.68168754 380.33789438 325.03467927 380.2484436 366.38768005 C379.2584436 366.71768005 378.2684436 367.04768005 377.2484436 367.38768005 C376.9184436 368.37768005 376.5884436 369.36768005 376.2484436 370.38768005 C375.0418811 370.85174255 375.0418811 370.85174255 373.8109436 371.32518005 C371.1359137 372.09808995 371.1359137 372.09808995 370.3890686 374.20799255 C368.89714968 377.0589883 366.99257894 378.38949663 364.4359436 380.32518005 C361.54057886 382.56041834 358.76735294 384.73261345 356.2484436 387.38768005 C355.5884436 388.04768005 354.9284436 388.70768005 354.2484436 389.38768005 C353.5884436 389.38768005 352.9284436 389.38768005 352.2484436 389.38768005 C352.2484436 390.04768005 352.2484436 390.70768005 352.2484436 391.38768005 C350.65510121 392.82317731 348.99593278 394.18595332 347.3109436 395.51268005 C342.72056013 399.17193923 338.32876838 402.96235164 334.02578735 406.9540863 C332.2484436 408.38768005 332.2484436 408.38768005 330.2484436 408.38768005 C330.2484436 409.04768005 330.2484436 409.70768005 330.2484436 410.38768005 C329.5884436 410.38768005 328.9284436 410.38768005 328.2484436 410.38768005 C327.9184436 411.37768005 327.5884436 412.36768005 327.2484436 413.38768005 C325.61630604 414.86779075 323.91754171 416.27526724 322.1859436 417.63768005 C317.92865303 421.02466513 313.81643444 424.49686101 309.80703735 428.1728363 C308.2484436 429.38768005 308.2484436 429.38768005 306.2484436 429.38768005 C305.9184436 430.37768005 305.5884436 431.36768005 305.2484436 432.38768005 C303.67790154 433.80464512 302.04097697 435.14874821 300.3734436 436.45018005 C295.16897622 440.58654106 290.29967728 444.95775104 285.46328735 449.5165863 C283.2484436 451.38768005 283.2484436 451.38768005 281.2484436 451.38768005 C280.9184436 452.37768005 280.5884436 453.36768005 280.2484436 454.38768005 C278.53680272 455.97483796 276.75516541 457.48757391 274.9359436 458.95018005 C273.97043579 459.73521912 273.00492798 460.52025818 272.01016235 461.3290863 C269.77911351 462.99211706 267.78102115 464.27478968 265.2484436 465.38768005 C265.2484436 466.04768005 265.2484436 466.70768005 265.2484436 467.38768005 C261.78690514 470.38768005 261.78690514 470.38768005 259.2484436 470.38768005 C258.9081311 471.25393005 258.9081311 471.25393005 258.5609436 472.13768005 C256.89996138 474.98507814 254.93319799 476.50835198 252.2484436 478.38768005 C251.5884436 478.38768005 250.9284436 478.38768005 250.2484436 478.38768005 C250.2484436 479.04768005 250.2484436 479.70768005 250.2484436 480.38768005 C245.77785537 484.38768005 245.77785537 484.38768005 243.2484436 484.38768005 C243.2484436 485.04768005 243.2484436 485.70768005 243.2484436 486.38768005 C241.7796936 487.8681488 241.7796936 487.8681488 239.7484436 489.57518005 C239.0987561 490.12560974 238.4490686 490.67603943 237.7796936 491.2431488 C236.9443811 491.95084412 236.1090686 492.65853943 235.2484436 493.38768005 C234.70662138 493.95186903 234.16479916 494.51605801 233.60655808 495.09734362 C229.19788868 499.46992772 226.13258605 501.19089143 219.9116714 501.31922179 C218.99765913 501.30292462 218.08364686 501.28662745 217.14193726 501.26983643 C216.15126542 501.28005079 215.16059359 501.29026516 214.1399014 501.30078906 C210.83383694 501.32628534 207.53007391 501.30195344 204.22402954 501.27757263 C201.84825009 501.28542426 199.47247892 501.29626812 197.09672546 501.30987549 C191.32099021 501.33463251 185.54598465 501.32674173 179.77025881 501.30296198 C175.07227678 501.28438373 170.37447422 501.27992327 165.67646027 501.28545189 C164.67166399 501.28662775 164.67166399 501.28662775 163.64656879 501.28782737 C162.28549879 501.28949325 160.92442884 501.29119704 159.56335893 501.29293831 C146.81021804 501.3077148 134.0574368 501.28041409 121.30437461 501.23811986 C110.38113673 501.20279298 99.45832897 501.20114794 88.5350647 501.22483826 C75.83235115 501.25236002 63.12988076 501.26050173 50.42715096 501.23690337 C49.06999734 501.23442207 47.71284369 501.2319586 46.35569 501.22951317 C45.68805965 501.22829253 45.02042931 501.22707189 44.33256774 501.22581426 C39.64674991 501.21850726 34.96110286 501.22493066 30.27529144 501.23601723 C23.95488852 501.24950157 17.63523071 501.23320884 11.3149395 501.19437981 C9.0011351 501.1848847 6.68726295 501.18547081 4.3734684 501.19712067 C-11.7589716 501.26966914 -22.7027037 500.06562866 -34.84921265 488.4462738 C-45.08892064 477.36552203 -45.19357774 463.94196122 -45.13923645 449.63134766 C-45.14341404 447.83611482 -45.14889389 446.04088463 -45.15555626 444.24565929 C-45.16997356 439.33394186 -45.16577778 434.42239275 -45.15838945 429.51066625 C-45.15365092 424.20517945 -45.16617365 418.89972871 -45.17640686 413.59425354 C-45.19358637 403.2089998 -45.19443667 392.82380658 -45.18919396 382.43854231 C-45.18514968 373.9963952 -45.18659888 365.55426594 -45.19194221 357.11211967 C-45.19269064 355.9097926 -45.19343906 354.70746552 -45.19421016 353.46870429 C-45.19574166 351.02605494 -45.19728001 348.58340559 -45.19882513 346.14075624 C-45.21254694 323.24422236 -45.20711457 300.34772267 -45.19563992 277.45118957 C-45.18570646 256.51164923 -45.19865076 235.57219724 -45.22257411 214.63267053 C-45.24696523 193.12133909 -45.25657303 171.61004879 -45.24992138 150.0987038 C-45.24642938 138.02592616 -45.2486601 125.95321647 -45.26617241 113.8804493 C-45.28089444 103.60399091 -45.28152964 93.32764835 -45.2641015 83.05119223 C-45.2555895 77.81019199 -45.25344704 72.56939865 -45.26875305 67.32840919 C-45.28260372 62.52623728 -45.27783195 57.72444946 -45.25851382 52.92229974 C-45.25475472 51.18958777 -45.25767316 49.45684501 -45.26812547 47.7241605 C-45.34258699 34.4303139 -44.02645075 23.05238133 -35.0249939 12.64549255 C-24.44355773 2.13678103 -14.46525243 -0.06528684 0 0 Z M-4.7515564 39.38768005 C-4.7515564 178.64768005 -4.7515564 317.90768005 -4.7515564 461.38768005 C64.8784436 461.38768005 134.5084436 461.38768005 206.2484436 461.38768005 C206.5784436 427.39768005 206.9084436 393.40768005 207.2484436 358.38768005 C210.2484436 348.38768005 210.2484436 348.38768005 212.2484436 345.38768005 C212.2484436 344.39768005 212.2484436 343.40768005 212.2484436 342.38768005 C213.2384436 342.05768005 214.2284436 341.72768005 215.2484436 341.38768005 C215.9909436 340.45955505 216.7334436 339.53143005 217.4984436 338.57518005 C223.10586914 331.59927566 231.90383022 329.4738334 240.2484436 327.38768005 C273.2484436 327.05768005 306.2484436 326.72768005 340.2484436 326.38768005 C340.2484436 231.67768005 340.2484436 136.96768005 340.2484436 39.38768005 C226.3984436 39.38768005 112.5484436 39.38768005 -4.7515564 39.38768005 Z M245.2484436 366.38768005 C245.2484436 387.50768005 245.2484436 408.62768005 245.2484436 430.38768005 C250.95085659 426.62622023 250.95085659 426.62622023 256.2484436 422.38768005 C256.2484436 421.72768005 256.2484436 421.06768005 256.2484436 420.38768005 C256.80145142 420.15435974 257.35445923 419.92103943 257.92422485 419.6806488 C260.85307029 418.0513247 262.99712049 415.99823416 265.4359436 413.70018005 C269.6714476 409.76639879 273.99602689 406.16527261 278.66641235 402.76268005 C279.18848267 402.30893005 279.71055298 401.85518005 280.2484436 401.38768005 C280.2484436 400.72768005 280.2484436 400.06768005 280.2484436 399.38768005 C281.12242798 398.99129333 281.12242798 398.99129333 282.0140686 398.5868988 C284.33755071 397.33985508 286.04431466 395.96454854 287.9984436 394.20018005 C288.68680298 393.58529724 289.37516235 392.97041443 290.0843811 392.3368988 C290.79852173 391.69365662 291.51266235 391.05041443 292.2484436 390.38768005 C293.70405762 389.09294969 295.16228819 387.80115347 296.6234436 386.51268005 C297.27055298 385.93775818 297.91766235 385.3628363 298.5843811 384.77049255 C300.2484436 383.38768005 300.2484436 383.38768005 302.2484436 382.38768005 C302.2484436 381.72768005 302.2484436 381.06768005 302.2484436 380.38768005 C303.2384436 380.05768005 304.2284436 379.72768005 305.2484436 379.38768005 C305.2484436 378.72768005 305.2484436 378.06768005 305.2484436 377.38768005 C306.2384436 377.38768005 307.2284436 377.38768005 308.2484436 377.38768005 C312.01782203 374.01507831 314.98831238 370.29983753 318.2484436 366.38768005 C294.1584436 366.38768005 270.0684436 366.38768005 245.2484436 366.38768005 Z " fill="#060606" transform="translate(54.751556396484375,20.612319946289063)"/>
<path d="M0 0 C0.57752014 0.23609985 1.15504028 0.47219971 1.75006104 0.7154541 C1.75006104 1.3754541 1.75006104 2.0354541 1.75006104 2.7154541 C2.32756104 2.9629541 2.90506104 3.2104541 3.50006104 3.4654541 C6.07946083 4.89845399 7.81127695 6.49970087 9.75006104 8.7154541 C9.75006104 9.3754541 9.75006104 10.0354541 9.75006104 10.7154541 C10.74006104 11.0454541 11.73006104 11.3754541 12.75006104 11.7154541 C12.75006104 12.3754541 12.75006104 13.0354541 12.75006104 13.7154541 C13.32756104 13.9629541 13.90506104 14.2104541 14.50006104 14.4654541 C17.07946083 15.89845399 18.81127695 17.49970087 20.75006104 19.7154541 C20.75006104 20.3754541 20.75006104 21.0354541 20.75006104 21.7154541 C21.36881104 21.9629541 21.98756104 22.2104541 22.62506104 22.4654541 C24.75006104 23.7154541 24.75006104 23.7154541 26.75006104 27.7154541 C0.02006104 54.4454541 -26.70993896 81.1754541 -54.24993896 108.7154541 C-58.1719231 106.75446203 -60.1703244 105.00374827 -63.18743896 101.9029541 C-64.0214624 101.05088379 -64.85548584 100.19881348 -65.71478271 99.32092285 C-66.96968506 98.03121582 -66.96968506 98.03121582 -68.24993896 96.7154541 C-71.77807443 93.12797041 -71.77807443 93.12797041 -75.62493896 89.9029541 C-77.85467709 88.044839 -79.56317035 86.28075864 -81.43743896 84.0904541 C-86.46198515 78.21932136 -91.80638963 72.45382218 -97.86322021 67.6373291 C-99.97422729 65.93746743 -101.60743102 64.30515743 -103.31243896 62.2154541 C-105.50877003 59.57645166 -107.77190173 57.09818222 -110.24993896 54.7154541 C-108.64533247 50.76078478 -105.90590204 48.04860329 -102.94525146 45.0748291 C-102.16466873 44.28426117 -102.16466873 44.28426117 -101.36831665 43.47772217 C-100.26981297 42.36912085 -99.16860544 41.26319304 -98.06488037 40.15979004 C-96.37712429 38.46764511 -94.70601586 36.76014256 -93.03509521 35.0513916 C-91.96446251 33.97489335 -90.89287951 32.8993392 -89.82025146 31.8248291 C-89.32220001 31.31240662 -88.82414856 30.79998413 -88.31100464 30.27203369 C-85.31637981 27.31630506 -84.65992439 26.7154541 -80.24993896 26.7154541 C-78.86484372 28.33935887 -77.54234947 30.01685743 -76.24993896 31.7154541 C-74.41996903 33.29642165 -72.5497681 34.80172137 -70.64056396 36.2857666 C-69.24993896 37.7154541 -69.24993896 37.7154541 -69.24993896 40.7154541 C-68.37595459 41.10217285 -68.37595459 41.10217285 -67.48431396 41.4967041 C-65.06964866 42.81379427 -63.43253719 44.26633794 -61.49993896 46.2154541 C-60.57954834 47.12811035 -60.57954834 47.12811035 -59.64056396 48.0592041 C-58.24993896 49.7154541 -58.24993896 49.7154541 -58.24993896 51.7154541 C-56.92993896 51.7154541 -55.60993896 51.7154541 -54.24993896 51.7154541 C-52.86904664 50.08797386 -51.5478029 48.40988757 -50.24993896 46.7154541 C-49.08625706 45.66132628 -47.89889327 44.6330815 -46.69622803 43.62365723 C-41.82062611 39.41477371 -37.35387344 34.85537226 -32.85931396 30.2467041 C-31.08126164 28.44143185 -29.30259822 26.63676131 -27.52337646 24.8326416 C-24.74358034 22.00936484 -21.96666757 19.18350732 -19.2020874 16.34533691 C-16.5157643 13.5927783 -13.81410803 10.85609773 -11.10931396 8.1217041 C-9.86549957 6.83447449 -9.86549957 6.83447449 -8.59655762 5.52124023 C-7.43449799 4.35377258 -7.43449799 4.35377258 -6.2489624 3.16271973 C-5.23258698 2.12516541 -5.23258698 2.12516541 -4.19567871 1.06665039 C-2.24993896 -0.2845459 -2.24993896 -0.2845459 0 0 Z " fill="#080808" transform="translate(203.24993896484375,219.2845458984375)"/>
<path d="M0 0 C3.38583063 1.37535538 5.59771245 3.90028401 8.10058594 6.47680664 C8.64982727 7.03029282 9.1990686 7.58377899 9.76495361 8.15403748 C11.51421558 9.92006598 13.25274738 11.69624731 14.99121094 13.47290039 C16.17671594 14.6734548 17.36290617 15.87333299 18.54980469 17.07250977 C21.45494387 20.01069134 24.35050431 22.95802113 27.24121094 25.91040039 C26.91121094 26.90040039 26.58121094 27.89040039 26.24121094 28.91040039 C25.58121094 28.91040039 24.92121094 28.91040039 24.24121094 28.91040039 C23.91121094 29.90040039 23.58121094 30.89040039 23.24121094 31.91040039 C22.58121094 31.91040039 21.92121094 31.91040039 21.24121094 31.91040039 C20.86996094 32.77665039 20.86996094 32.77665039 20.49121094 33.66040039 C19.05821105 36.23980018 17.45696417 37.97161631 15.24121094 39.91040039 C14.58121094 39.91040039 13.92121094 39.91040039 13.24121094 39.91040039 C12.86996094 40.77665039 12.86996094 40.77665039 12.49121094 41.66040039 C11.05821105 44.23980018 9.45696417 45.97161631 7.24121094 47.91040039 C6.58121094 47.91040039 5.92121094 47.91040039 5.24121094 47.91040039 C4.91121094 48.90040039 4.58121094 49.89040039 4.24121094 50.91040039 C3.58121094 50.91040039 2.92121094 50.91040039 2.24121094 50.91040039 C1.91121094 51.90040039 1.58121094 52.89040039 1.24121094 53.91040039 C0.58121094 53.91040039 -0.07878906 53.91040039 -0.75878906 53.91040039 C-0.75878906 54.57040039 -0.75878906 55.23040039 -0.75878906 55.91040039 C-1.41878906 55.91040039 -2.07878906 55.91040039 -2.75878906 55.91040039 C-3.08878906 56.90040039 -3.41878906 57.89040039 -3.75878906 58.91040039 C-4.41878906 58.91040039 -5.07878906 58.91040039 -5.75878906 58.91040039 C-6.02691406 59.54977539 -6.29503906 60.18915039 -6.57128906 60.84790039 C-7.75878906 62.91040039 -7.75878906 62.91040039 -10.75878906 63.91040039 C-11.25378906 65.39540039 -11.25378906 65.39540039 -11.75878906 66.91040039 C-12.41878906 66.91040039 -13.07878906 66.91040039 -13.75878906 66.91040039 C-14.25378906 68.39540039 -14.25378906 68.39540039 -14.75878906 69.91040039 C-15.41878906 69.91040039 -16.07878906 69.91040039 -16.75878906 69.91040039 C-17.25378906 71.39540039 -17.25378906 71.39540039 -17.75878906 72.91040039 C-18.41878906 72.91040039 -19.07878906 72.91040039 -19.75878906 72.91040039 C-19.75878906 73.57040039 -19.75878906 74.23040039 -19.75878906 74.91040039 C-20.41878906 74.91040039 -21.07878906 74.91040039 -21.75878906 74.91040039 C-22.25378906 76.39540039 -22.25378906 76.39540039 -22.75878906 77.91040039 C-23.41878906 77.91040039 -24.07878906 77.91040039 -24.75878906 77.91040039 C-25.25378906 79.39540039 -25.25378906 79.39540039 -25.75878906 80.91040039 C-26.41878906 80.91040039 -27.07878906 80.91040039 -27.75878906 80.91040039 C-27.75878906 81.57040039 -27.75878906 82.23040039 -27.75878906 82.91040039 C-29.13378906 84.53540039 -29.13378906 84.53540039 -30.75878906 85.91040039 C-31.41878906 85.91040039 -32.07878906 85.91040039 -32.75878906 85.91040039 C-33.25378906 87.39540039 -33.25378906 87.39540039 -33.75878906 88.91040039 C-34.41878906 88.91040039 -35.07878906 88.91040039 -35.75878906 88.91040039 C-36.25378906 90.39540039 -36.25378906 90.39540039 -36.75878906 91.91040039 C-37.41878906 91.91040039 -38.07878906 91.91040039 -38.75878906 91.91040039 C-38.75878906 92.57040039 -38.75878906 93.23040039 -38.75878906 93.91040039 C-40.13378906 95.53540039 -40.13378906 95.53540039 -41.75878906 96.91040039 C-42.41878906 96.91040039 -43.07878906 96.91040039 -43.75878906 96.91040039 C-44.13003906 97.77665039 -44.13003906 97.77665039 -44.50878906 98.66040039 C-45.94178895 101.23980018 -47.54303583 102.97161631 -49.75878906 104.91040039 C-50.41878906 104.91040039 -51.07878906 104.91040039 -51.75878906 104.91040039 C-52.25378906 106.39540039 -52.25378906 106.39540039 -52.75878906 107.91040039 C-55.5409085 107.5344383 -57.34671746 107.2372158 -59.57128906 105.47290039 C-60.75878906 103.91040039 -60.75878906 103.91040039 -60.75878906 101.91040039 C-61.60694183 101.55022324 -61.60694183 101.55022324 -62.472229 101.18276978 C-65.23703148 99.64427967 -67.11168702 97.79709289 -69.34375 95.55249023 C-70.24438171 94.65170746 -71.14501343 93.75092468 -72.07293701 92.82284546 C-73.04645387 91.83911631 -74.01986032 90.85527789 -74.99316406 89.87133789 C-75.99592068 88.86484911 -76.99912128 87.8588025 -78.00274658 86.85317993 C-80.6375272 84.21077892 -83.26624517 81.56242611 -85.89373779 78.91278076 C-88.57818594 76.20783987 -91.26833529 73.50858218 -93.95800781 70.80883789 C-99.23052525 65.51489865 -104.49664964 60.21465756 -109.75878906 54.91040039 C-108.35974115 51.1770026 -107.28133069 49.1303012 -104.14941406 46.62915039 C-101.13115708 44.1152995 -98.33489887 41.52987571 -95.61816406 38.69165039 C-94.94011719 37.98782227 -94.26207031 37.28399414 -93.56347656 36.55883789 C-92.17059306 35.10240077 -90.78538563 33.63859078 -89.40722656 32.16821289 C-88.39789063 31.12793945 -88.39789063 31.12793945 -87.36816406 30.06665039 C-86.7697168 29.4356543 -86.17126953 28.8046582 -85.5546875 28.15454102 C-83.75878906 26.91040039 -83.75878906 26.91040039 -81.68164062 27.07250977 C-78.73100193 28.35826294 -76.96749954 30.59651323 -74.75878906 32.91040039 C-73.81003906 33.67352539 -72.86128906 34.43665039 -71.88378906 35.22290039 C-68.71139431 37.80962227 -66.15267433 40.80338258 -63.49707031 43.90649414 C-61.04130554 46.73752184 -58.50390065 49.35680822 -55.75878906 51.91040039 C-55.09878906 51.91040039 -54.43878906 51.91040039 -53.75878906 51.91040039 C-53.26378906 50.92040039 -53.26378906 50.92040039 -52.75878906 49.91040039 C-52.09878906 49.91040039 -51.43878906 49.91040039 -50.75878906 49.91040039 C-50.42878906 48.92040039 -50.09878906 47.93040039 -49.75878906 46.91040039 C-49.09878906 46.91040039 -48.43878906 46.91040039 -47.75878906 46.91040039 C-47.75878906 46.25040039 -47.75878906 45.59040039 -47.75878906 44.91040039 C-47.05753906 44.35352539 -46.35628906 43.79665039 -45.63378906 43.22290039 C-43.29013443 41.33778688 -41.64679722 39.69459679 -39.75878906 37.41040039 C-37.34260479 34.4947465 -34.76380796 32.22855783 -31.75878906 29.91040039 C-31.42878906 29.25040039 -31.09878906 28.59040039 -30.75878906 27.91040039 C-30.09878906 27.91040039 -29.43878906 27.91040039 -28.75878906 27.91040039 C-28.75878906 27.25040039 -28.75878906 26.59040039 -28.75878906 25.91040039 C-28.07816406 25.37415039 -27.39753906 24.83790039 -26.69628906 24.28540039 C-23.54037696 21.73381188 -21.09915787 18.95241523 -18.46582031 15.88305664 C-16.32918325 13.41394517 -14.16935762 11.11434879 -11.75878906 8.91040039 C-11.09878906 8.91040039 -10.43878906 8.91040039 -9.75878906 8.91040039 C-9.75878906 8.25040039 -9.75878906 7.59040039 -9.75878906 6.91040039 C-8.38378906 5.28540039 -8.38378906 5.28540039 -6.75878906 3.91040039 C-6.09878906 3.91040039 -5.43878906 3.91040039 -4.75878906 3.91040039 C-4.42878906 2.92040039 -4.09878906 1.93040039 -3.75878906 0.91040039 C-1.75878906 -0.08959961 -1.75878906 -0.08959961 0 0 Z " fill="#080808" transform="translate(202.7587890625,104.089599609375)"/>
<path d="M0 0 C0.8545021 0.00092179 1.70900419 0.00184359 2.58940029 0.00279331 C3.56681683 0.00141865 4.54423336 0.00004398 5.55126858 -0.00137234 C6.63235897 0.00222294 7.71344936 0.00581821 8.82730007 0.00952244 C10.52464039 0.0093034 10.52464039 0.0093034 12.25627041 0.00907993 C16.01686389 0.00977964 19.77740855 0.01757472 23.53799343 0.02539158 C26.13731261 0.02725555 28.73663215 0.02867955 31.33595181 0.0296793 C37.49122295 0.03311442 43.64647378 0.04100527 49.80173725 0.05102879 C56.80767064 0.06219089 63.81360485 0.06770062 70.81954491 0.07272422 C85.23481877 0.08318791 99.65007672 0.10098725 114.06533718 0.12304783 C114.06533718 6.72304783 114.06533718 13.32304783 114.06533718 20.12304783 C111.20406685 21.07680461 109.43393314 21.24866783 106.46607876 21.25003147 C105.52245983 21.2528513 104.5788409 21.25567112 103.60662746 21.25857639 C102.57327267 21.25655216 101.53991787 21.25452793 100.47524929 21.25244236 C99.38562389 21.25419468 98.2959985 21.255947 97.17335415 21.25775242 C93.56311366 21.26216227 89.95292194 21.25923616 86.34268093 21.25586033 C83.84069211 21.25653357 81.33870334 21.25750376 78.83671474 21.2587595 C73.59024461 21.26023526 68.34378722 21.25818063 63.0973196 21.25341892 C57.02780752 21.24797391 50.958329 21.24974162 44.88881773 21.25524533 C39.05342819 21.26032533 33.21805144 21.25979383 27.38266087 21.25686359 C24.89745549 21.25619469 22.41224925 21.25702147 19.92704487 21.25934315 C16.4600167 21.26187123 12.99305382 21.25802696 9.52603054 21.25244236 C7.972962 21.25547871 7.972962 21.25547871 6.38851833 21.25857639 C5.44771923 21.25575657 4.50692013 21.25293674 3.53761196 21.25003147 C2.71742549 21.24965445 1.89723902 21.24927742 1.05219841 21.24888897 C-0.93466282 21.12304783 -0.93466282 21.12304783 -2.93466282 20.12304783 C-2.96354796 16.9772336 -2.98142205 13.83145314 -2.99716282 10.68554783 C-3.00554173 9.7877158 -3.01392063 8.88988377 -3.02255344 7.9648447 C-3.0257761 7.1108408 -3.02899876 6.25683689 -3.03231907 5.37695408 C-3.04017429 4.19081516 -3.04017429 4.19081516 -3.04818821 2.98071384 C-2.89053662 0.40099138 -2.57550578 0.16380653 0 0 Z " fill="#000001" transform="translate(243.9346628189087,154.87695217132568)"/>
<path d="M0 0 C38.61 0 77.22 0 117 0 C117 6.27 117 12.54 117 19 C78.39 19 39.78 19 0 19 C0 12.73 0 6.46 0 0 Z " fill="#030303" transform="translate(241,271)"/>
<path d="M0 0 C0.8545021 0.00092179 1.70900419 0.00184359 2.58940029 0.00279331 C3.56681683 0.00141865 4.54423336 0.00004398 5.55126858 -0.00137234 C6.63235897 0.00222294 7.71344936 0.00581821 8.82730007 0.00952244 C10.52464039 0.0093034 10.52464039 0.0093034 12.25627041 0.00907993 C16.01686389 0.00977964 19.77740855 0.01757472 23.53799343 0.02539158 C26.13731261 0.02725555 28.73663215 0.02867955 31.33595181 0.0296793 C37.49122295 0.03311442 43.64647378 0.04100527 49.80173725 0.05102879 C56.80767064 0.06219089 63.81360485 0.06770062 70.81954491 0.07272422 C85.23481877 0.08318791 99.65007672 0.10098725 114.06533718 0.12304783 C114.06533718 6.72304783 114.06533718 13.32304783 114.06533718 20.12304783 C113.73533718 20.12304783 113.40533718 20.12304783 113.06533718 20.12304783 C113.06533718 13.85304783 113.06533718 7.58304783 113.06533718 1.12304783 C56.63533718 1.61804783 56.63533718 1.61804783 -0.93466282 2.12304783 C-0.60466282 7.73304783 -0.27466282 13.34304783 0.06533718 19.12304783 C2.71726101 19.11781101 5.36918484 19.1125742 8.10146999 19.10717869 C16.94226708 19.0904805 25.78306494 19.07951232 34.62387371 19.07123566 C39.97497561 19.0660552 45.32606112 19.0590474 50.67715359 19.04760838 C55.85784722 19.0366051 61.03852526 19.03073475 66.2192297 19.02817059 C68.17879131 19.02634731 70.13835224 19.02278851 72.09790707 19.01731777 C85.12029633 18.98246477 98.06552452 19.34692894 111.06533718 20.12304783 C111.06533718 20.45304783 111.06533718 20.78304783 111.06533718 21.12304783 C96.49689596 21.14638756 81.92845763 21.16396587 67.36000156 21.17486 C60.59592089 21.18002067 53.83185182 21.18705902 47.06777859 21.19848728 C40.54501164 21.20950261 34.02225224 21.21532562 27.49947643 21.21792507 C25.0058959 21.21977851 22.51231607 21.22339757 20.01874065 21.22877789 C16.53702501 21.23599422 13.05535983 21.23703851 9.57363796 21.23657322 C8.5335458 21.2401685 7.49345364 21.24376377 6.42184353 21.24746799 C5.47670895 21.24609333 4.53157436 21.24471867 3.55779934 21.24330235 C2.32167495 21.24468503 2.32167495 21.24468503 1.06057835 21.24609566 C-0.93466282 21.12304783 -0.93466282 21.12304783 -2.93466282 20.12304783 C-2.96354796 16.9772336 -2.98142205 13.83145314 -2.99716282 10.68554783 C-3.00554173 9.7877158 -3.01392063 8.88988377 -3.02255344 7.9648447 C-3.0257761 7.1108408 -3.02899876 6.25683689 -3.03231907 5.37695408 C-3.04017429 4.19081516 -3.04017429 4.19081516 -3.04818821 2.98071384 C-2.89053662 0.40099138 -2.57550578 0.16380653 0 0 Z " fill="#78787A" transform="translate(243.9346628189087,154.87695217132568)"/>
<path d="M0 0 C0.33 0.66 0.66 1.32 1 2 C-0.07192184 3.3218362 -1.15802695 4.63217927 -2.25 5.9375 C-2.85328125 6.66839844 -3.4565625 7.39929688 -4.078125 8.15234375 C-6.10741134 10.10326334 -7.254407 10.61731779 -10 11 C-6.79239749 7.19364503 -3.59253891 3.45436433 0 0 Z " fill="#5C5C5C" transform="translate(116,249)"/>
<path d="M0 0 C0 3 0 3 -1.96875 5.26171875 C-2.8040625 6.06222656 -3.639375 6.86273438 -4.5 7.6875 C-5.3353125 8.49574219 -6.170625 9.30398437 -7.03125 10.13671875 C-7.6809375 10.75160156 -8.330625 11.36648437 -9 12 C-9 8.26071501 -8.08040398 7.59097747 -5.625 4.875 C-4.99851562 4.17117187 -4.37203125 3.46734375 -3.7265625 2.7421875 C-2 1 -2 1 0 0 Z " fill="#4D4D4D" transform="translate(26,28)"/>
<path d="M0 0 C0 3 0 3 -1.4609375 4.82421875 C-2.09257812 5.43910156 -2.72421875 6.05398437 -3.375 6.6875 C-4.00148437 7.31011719 -4.62796875 7.93273437 -5.2734375 8.57421875 C-7 10 -7 10 -9 10 C-9 10.66 -9 11.32 -9 12 C-9.66 11.67 -10.32 11.34 -11 11 C-9.92173635 9.72486237 -8.83714481 8.45507431 -7.75 7.1875 C-7.14671875 6.47980469 -6.5434375 5.77210937 -5.921875 5.04296875 C-4.07629602 3.08110329 -2.20054668 1.54330375 0 0 Z " fill="#494949" transform="translate(190,115)"/>
<path d="M0 0 C0.33 0.66 0.66 1.32 1 2 C-3.625 7.875 -3.625 7.875 -7 9 C-5.44499019 5.18315774 -2.96404505 2.80804268 0 0 Z " fill="#606060" transform="translate(100,265)"/>
</svg>
